<svg xmlns:xlink="http://www.w3.org/1999/xlink" id="Layer_1" style="enable-background:new 0 0 511.999 511.999;" version="1.1" viewBox="0 0 511.999 511.999" x="0px" xmlns="http://www.w3.org/2000/svg" y="0px"><g  ><!----><circle cx="400" cy="80" id="moon" r="25" stroke="black" stroke-width="12" style="fill:white;" class="ng-star-inserted"></circle><circle cx="255.973" cy="255.984" id="globe" r="168.111" style="fill:#1D71B8;"></circle></g><path d="M255.976,424.77c-92.844,0-168.11-75.265-168.11-168.109s75.266-168.11,168.11-168.11" style="fill:#77AAD4;"></path><g  ><path d="M247.97,424.094c0,0,43.529,8.506,96.063-24.016l8.006-8.005l-16.011-16.011l8.006-48.031
		l-24.016-24.016l-32.021-16.011h-48.03l-24.016,8.005l-16.01,32.021l8.005,40.026h32.021l8.005,32.021v24.017H247.97z" style="fill:#FAC15C;"></path><path d="M175.925,143.911h16.01l24.016-48.031c0,0-27.409-5.453-56.037,24.016L175.925,143.911z" style="fill:#FAC15C;"></path><path d="M328.024,191.942l8.005,40.026v24.016l-16.01,16.011l32.021,8.005l16.01-40.026l-8.006-56.037
		l32.021,16.011h16.01c-7.824-58.357-72.048-88.058-72.048-88.058l-24.016-8.005l-24.016,16.01l-8.005,24.016h-32.021l8.006,16.011
		v40.026h-32.021v40.026l32.021,8.005l32.02-8.005v-40.026L328.024,191.942z" style="fill:#FAC15C;"></path><path d="M95.872,280l40.026,8.005l16.011,24.016v32.021l-8.006,24.016l-8.006,8.005
		C135.897,376.062,91.48,331.384,95.872,280z" style="fill:#FAC15C;"></path></g><g  ><path d="M255.976,80.021c-97.026,0-175.964,78.936-175.964,175.963s78.937,175.963,175.964,175.963
		S431.94,353.01,431.94,255.984S353.003,80.021,255.976,80.021z M402.932,192.094h-9.012l-43.77-21.884l9.829,68.797l-12.685,31.712
		l-11.915-2.979l8.502-8.503v-36.24l-10.055-40.223l-53.683,10.736v40.333l-24.168,6.042l-24.168-6.042v-26.041h32.021v-49.733
		l-3.152-6.304h24.974l8.767-26.3l29.111-14.556l-0.147-0.293C358.825,127.115,387.266,156.2,402.932,192.094z M202.685,104.848
		l-15.604,31.21h-6.955l-10.16-15.239C180.151,114.316,191.117,108.94,202.685,104.848z M99.337,289.873l31.914,5.319l12.805,19.207
		v28.676l-5.471,21.879C119.352,344.249,105.518,318.471,99.337,289.873z M255.824,416.239v-17.127l-9.726-38.907h-31.714
		l-6.213-31.07l13.35-26.702l19.72-6.574h44.904l29.222,14.612l20.257,20.257l-8.006,48.031l13.152,13.152
		c-24.611,15.408-53.677,24.331-84.793,24.331C255.925,416.241,255.875,416.239,255.824,416.239z M353.856,382.784l-9.418-9.418
		l8.006-48.031l-27.774-27.774l-34.818-17.409h-51.159l-28.311,9.436l-18.67,37.342l9.796,48.981h32.328l6.283,25.135v14.411
		c-33.609-3.316-64.198-17.058-88.483-37.938l8.128-32.509v-35.366l-19.218-28.824l-43.863-7.31
		c-0.629-5.757-0.962-11.602-0.962-17.523c0-51.112,24.053-96.711,61.432-126.075l14.57,21.855h25.066l26.186-52.373l-0.333-0.166
		c10.757-2.285,21.906-3.497,33.335-3.497c16.738,0,32.883,2.584,48.062,7.366l-22.462,11.232l-7.244,21.731h-39.069l12.859,25.718
		v30.319h-32.021v54.011l39.874,9.968l39.874-9.968v-39.721l26.37-5.274l5.955,23.818v27.801l-23.518,23.518l52.128,13.031
		l19.336-48.34l-6.182-43.278l20.273,10.137h18.616c4.806,15.214,7.405,31.4,7.405,48.183
		C416.234,307.522,391.771,353.449,353.856,382.784z" style="fill:#1D1D1B;"></path></g></svg>