<?xml version="1.0" encoding="iso-8859-1"?>
<!-- Generator: Adobe Illustrator 19.0.0, SVG Export Plug-In . SVG Version: 6.00 Build 0)  -->
<svg version="1.1" id="Layer_1" xmlns="http://www.w3.org/2000/svg" xmlns:xlink="http://www.w3.org/1999/xlink" x="0px" y="0px"
	 viewBox="0 0 512 512" style="enable-background:new 0 0 512 512;" xml:space="preserve">
<g>
	<g>
		<path d="M433.365,348.894l-102.4-256c-3.942-9.856-13.457-16.094-23.757-16.094c-1.604,0-3.226,0.154-4.855,0.461
			C290.313,79.582,281.6,90.129,281.6,102.4v256c0,14.14,11.46,25.6,25.6,25.6h102.4c8.491,0,16.435-4.215,21.197-11.247
			C435.558,365.722,436.523,356.779,433.365,348.894z M307.2,358.4v-256l102.4,256H307.2z"/>
	</g>
</g>
<g>
	<g>
		<path d="M236.663,0.777C234.573,0.256,232.474,0,230.4,0c-9.25,0-17.997,5.035-22.537,13.466l-179.2,332.8
			c-4.275,7.936-4.053,17.527,0.563,25.267C33.843,379.264,42.189,384,51.2,384h179.2c14.14,0,25.6-11.46,25.6-25.6V25.6
			C256,13.875,248.03,3.644,236.663,0.777z M230.4,358.4H51.2L230.4,25.6V358.4z"/>
	</g>
</g>
<g>
	<g>
		<path d="M510.899,427.785c-3.268-10.803-13.218-18.185-24.499-18.185H25.6c-11.281,0-21.231,7.381-24.499,18.185
			c-3.268,10.795,0.913,22.46,10.3,28.715l76.8,51.2C92.407,510.507,97.348,512,102.4,512h307.2c5.052,0,9.993-1.493,14.199-4.301
			l76.8-51.2C509.986,450.244,514.167,438.579,510.899,427.785z M409.6,486.4H102.4l-76.8-51.2h460.8L409.6,486.4z"/>
	</g>
</g>
<g>
</g>
<g>
</g>
<g>
</g>
<g>
</g>
<g>
</g>
<g>
</g>
<g>
</g>
<g>
</g>
<g>
</g>
<g>
</g>
<g>
</g>
<g>
</g>
<g>
</g>
<g>
</g>
<g>
</g>
</svg>
