<?xml version="1.0" encoding="iso-8859-1"?>
<!-- Generator: Adobe Illustrator 19.0.0, SVG Export Plug-In . SVG Version: 6.00 Build 0)  -->
<svg version="1.1" id="Layer_1" xmlns="http://www.w3.org/2000/svg" xmlns:xlink="http://www.w3.org/1999/xlink" x="0px" y="0px"
	 viewBox="0 0 512 512" style="enable-background:new 0 0 512 512;" xml:space="preserve">
<g>
	<g>
		<path d="M510.941,337.686c-1.721-3.476-5.263-5.675-9.141-5.675H251.318v-25.786h178.641c3.879,0,7.422-2.2,9.142-5.677
			c1.72-3.477,1.319-7.628-1.035-10.711L249.225,42.497c-2.655-3.477-7.229-4.872-11.373-3.473
			c-4.144,1.401-6.932,5.289-6.932,9.663v57.083L89.351,289.808c-2.369,3.08-2.782,7.238-1.066,10.724
			c1.716,3.485,5.265,5.693,9.15,5.693h133.484v25.786H10.199c-3.694,0-7.099,1.997-8.902,5.221
			c-1.803,3.223-1.722,7.17,0.212,10.318l74.407,121.103c1.855,3.02,5.146,4.86,8.691,4.86h324.826c3.181,0,6.181-1.484,8.109-4.014
			l92.367-121.103C512.262,345.312,512.662,341.161,510.941,337.686z M251.318,78.853L409.34,285.828H251.318V78.853z
			 M118.149,285.827l112.771-146.601v146.601H118.149z M404.385,453.115H90.311l-12.69-20.653h342.517L404.385,453.115z
			 M435.696,412.063H65.088l-12.06-19.627h327.668c5.633,0,10.199-4.567,10.199-10.199c0-5.632-4.566-10.199-10.199-10.199H40.496
			l-12.06-19.627h452.758L435.696,412.063z"/>
	</g>
</g>
<g>
	<g>
		<path d="M420.722,372.037h-4.105c-5.633,0-10.199,4.567-10.199,10.199s4.566,10.199,10.199,10.199h4.105
			c5.633,0,10.199-4.567,10.199-10.199S426.355,372.037,420.722,372.037z"/>
	</g>
</g>
<g>
</g>
<g>
</g>
<g>
</g>
<g>
</g>
<g>
</g>
<g>
</g>
<g>
</g>
<g>
</g>
<g>
</g>
<g>
</g>
<g>
</g>
<g>
</g>
<g>
</g>
<g>
</g>
<g>
</g>
</svg>
